{
	"asset":{
		"generator":"Khronos glTF Blender I/O v4.5.49",
		"version":"2.0"
	},
	"scene":0,
	"scenes":[
		{
			"name":"Scene",
			"nodes":[
				0
			]
		}
	],
	"nodes":[
		{
			"mesh":0,
			"name":"Suzanne"
		}
	],
	"materials":[
		{
			"doubleSided":true,
			"name":"Material.003",
			"pbrMetallicRoughness":{
				"baseColorFactor":[
					0.05350087955594063,
					0.8002749681472778,
					0.02809813618659973,
					1
				],
				"metallicFactor":0,
				"roughnessFactor":0.5
			}
		}
	],
	"meshes":[
		{
			"name":"Suzanne",
			"primitives":[
				{
					"attributes":{
						"POSITION":0,
						"NORMAL":1,
						"TEXCOORD_0":2
					},
					"indices":3,
					"material":0
				}
			]
		}
	],
	"accessors":[
		{
			"bufferView":0,
			"componentType":5126,
			"count":503808,
			"max":[
				1.3289047479629517,
				0.9392362236976624,
				0.8226352334022522
			],
			"min":[
				-1.328904628753662,
				-0.9718890190124512,
				-0.7782661318778992
			],
			"type":"VEC3"
		},
		{
			"bufferView":1,
			"componentType":5126,
			"count":503808,
			"type":"VEC3"
		},
		{
			"bufferView":2,
			"componentType":5126,
			"count":503808,
			"type":"VEC2"
		},
		{
			"bufferView":3,
			"componentType":5125,
			"count":755712,
			"type":"SCALAR"
		}
	],
	"bufferViews":[
		{
			"buffer":0,
			"byteLength":6045696,
			"byteOffset":0,
			"target":34962
		},
		{
			"buffer":0,
			"byteLength":6045696,
			"byteOffset":6045696,
			"target":34962
		},
		{
			"buffer":0,
			"byteLength":4030464,
			"byteOffset":12091392,
			"target":34962
		},
		{
			"buffer":0,
			"byteLength":3022848,
			"byteOffset":16121856,
			"target":34963
		}
	],
	"buffers":[
		{
			"byteLength":19144704,
			"uri":"test.bin"
		}
	]
}
