{
	"asset":{
		"generator":"Khronos glTF Blender I/O v4.5.49",
		"version":"2.0"
	},
	"scene":0,
	"scenes":[
		{
			"name":"Scene",
			"nodes":[
				0
			]
		}
	],
	"nodes":[
		{
			"mesh":0,
			"name":"Suzanne"
		}
	],
	"materials":[
		{
			"doubleSided":true,
			"name":"Material.006",
			"pbrMetallicRoughness":{
				"baseColorFactor":[
					0.006696479395031929,
					0.8006223440170288,
					0.12136821448802948,
					1
				],
				"metallicFactor":0,
				"roughnessFactor":0.5
			}
		}
	],
	"meshes":[
		{
			"name":"Suzanne.002",
			"primitives":[
				{
					"attributes":{
						"POSITION":0,
						"NORMAL":1,
						"TEXCOORD_0":2
					},
					"indices":3,
					"material":0
				}
			]
		}
	],
	"accessors":[
		{
			"bufferView":0,
			"componentType":5126,
			"count":2015115,
			"max":[
				1.3289541006088257,
				0.9392380714416504,
				0.8226393461227417
			],
			"min":[
				-1.3289541006088257,
				-0.9718930125236511,
				-0.7782661318778992
			],
			"type":"VEC3"
		},
		{
			"bufferView":1,
			"componentType":5126,
			"count":2015115,
			"type":"VEC3"
		},
		{
			"bufferView":2,
			"componentType":5126,
			"count":2015115,
			"type":"VEC2"
		},
		{
			"bufferView":3,
			"componentType":5125,
			"count":3022848,
			"type":"SCALAR"
		}
	],
	"bufferViews":[
		{
			"buffer":0,
			"byteLength":24181380,
			"byteOffset":0,
			"target":34962
		},
		{
			"buffer":0,
			"byteLength":24181380,
			"byteOffset":24181380,
			"target":34962
		},
		{
			"buffer":0,
			"byteLength":16120920,
			"byteOffset":48362760,
			"target":34962
		},
		{
			"buffer":0,
			"byteLength":12091392,
			"byteOffset":64483680,
			"target":34963
		}
	],
	"buffers":[
		{
			"byteLength":76575072,
			"uri":"test.bin"
		}
	]
}
